<svg width="49" height="49" viewBox="0 0 49 49" fill="none" xmlns="http://www.w3.org/2000/svg">
<rect x="0.871582" y="0.275146" width="48" height="48" rx="24" fill="#c99700"/>
<path fill-rule="evenodd" clip-rule="evenodd" d="M16.8716 24.2751C16.8716 23.7229 17.3193 23.2751 17.8716 23.2751H31.8716C32.4239 23.2751 32.8716 23.7229 32.8716 24.2751C32.8716 24.8274 32.4239 25.2751 31.8716 25.2751H17.8716C17.3193 25.2751 16.8716 24.8274 16.8716 24.2751Z" fill="#ffffff"/>
<path fill-rule="evenodd" clip-rule="evenodd" d="M24.1645 16.568C24.555 16.1775 25.1882 16.1775 25.5787 16.568L32.5787 23.568C32.9692 23.9586 32.9692 24.5917 32.5787 24.9823L25.5787 31.9823C25.1882 32.3728 24.555 32.3728 24.1645 31.9823C23.774 31.5917 23.774 30.9586 24.1645 30.568L30.4574 24.2751L24.1645 17.9823C23.774 17.5917 23.774 16.9586 24.1645 16.568Z" fill="#ffffff"/>
</svg>
