<svg width="432" height="87" viewBox="0 0 432 87" fill="none" xmlns="http://www.w3.org/2000/svg">
<g clip-path="url(#clip0_270_737)">
<path d="M43.5 87C19.5123 87 0 67.4838 0 43.5C0 19.5162 19.5123 0 43.5 0C67.4877 0 87 19.5123 87 43.5C87 67.4877 67.4877 87 43.5 87ZM43.5 0.611322C19.8507 0.611322 0.611322 19.8507 0.611322 43.5C0.611322 67.1493 19.8507 86.3887 43.5 86.3887C67.1493 86.3887 86.3887 67.1493 86.3887 43.5C86.3887 19.8507 67.1493 0.611322 43.5 0.611322Z" fill="url(#paint0_linear_270_737)"/>
<path d="M43.5 87C67.5244 87 87 67.5244 87 43.5C87 19.4756 67.5244 0 43.5 0C19.4756 0 0 19.4756 0 43.5C0 67.5244 19.4756 87 43.5 87Z" fill="white"/>
<path d="M43.5 82.8015C65.2056 82.8015 82.8015 65.2056 82.8015 43.5C82.8015 21.7944 65.2056 4.19849 43.5 4.19849C21.7944 4.19849 4.19849 21.7944 4.19849 43.5C4.19849 65.2056 21.7944 82.8015 43.5 82.8015Z" fill="url(#paint1_linear_270_737)"/>
<path d="M71.3594 43.1347C71.3594 52.1315 68.918 59.3059 64.0313 64.6655C59.1445 70.0252 52.4969 72.7011 44.0845 72.7011C35.6721 72.7011 29.1013 69.9444 23.7186 64.4271C18.3359 58.9099 15.6445 51.9354 15.6445 43.4961C15.6445 35.0567 18.3244 28.2015 23.684 22.6381C29.0436 17.0746 35.7451 14.291 43.7961 14.291C48.9597 14.291 53.5119 15.2561 57.4528 17.1823C61.3937 19.1085 64.658 21.9652 67.2532 25.7485L62.5626 29.4933C60.5479 26.4867 57.9565 24.1837 54.7807 22.5842C51.6049 20.9848 48.0408 20.1851 44.0883 20.1851C37.6637 20.1851 32.3579 22.4228 28.1786 26.8942C23.9954 31.3657 21.9039 37.0214 21.9039 43.8613C21.9039 50.336 24.03 55.7802 28.2862 60.1902C32.5424 64.604 37.8098 66.8109 44.0883 66.8109C49.6402 66.8109 54.3308 65.1153 58.1641 61.7204C61.9935 58.3254 64.1043 54.0577 64.4926 48.9172H46.9258V43.1347H71.3671H71.3594Z" fill="url(#paint2_linear_270_737)"/>
<path d="M104.69 13.0493V75.335" stroke="#F9C20A" stroke-miterlimit="10"/>
<path d="M159.957 32.0963C159.957 37.7393 158.425 42.2439 155.36 45.6053C152.295 48.9668 148.121 50.6499 142.843 50.6499C137.565 50.6499 133.445 48.9181 130.064 45.4594C126.688 41.9958 125 37.6225 125 32.325C125 27.0274 126.683 22.732 130.045 19.2392C133.406 15.7464 137.609 14.0049 142.658 14.0049C145.898 14.0049 148.754 14.6081 151.225 15.8194C153.696 17.0307 155.744 18.8208 157.374 21.1948L154.431 23.5444C153.166 21.6569 151.541 20.2121 149.547 19.21C147.552 18.2079 145.319 17.702 142.838 17.702C138.806 17.702 135.483 19.103 132.856 21.9099C130.229 24.7167 128.921 28.263 128.921 32.5536C128.921 36.6155 130.254 40.0305 132.924 42.7984C135.595 45.5664 138.898 46.9528 142.838 46.9528C146.322 46.9528 149.265 45.8875 151.668 43.7568C154.071 41.6261 155.394 38.9506 155.637 35.7253H144.619V32.0963H159.952H159.957Z" fill="white"/>
<path d="M180.685 27.8786L179.795 31.5757C179.523 31.4103 179.226 31.2838 178.905 31.2011C178.584 31.1184 178.243 31.0746 177.878 31.0746C176.035 31.0746 174.648 31.8627 173.714 33.434C172.78 35.0101 172.313 37.3645 172.313 40.4973V49.9444H168.597V28.1267H172.313V31.96C172.843 30.3936 173.612 29.2504 174.619 28.5353C175.621 27.8202 176.964 27.4651 178.637 27.4651C179.031 27.4651 179.416 27.504 179.79 27.577C180.165 27.6548 180.461 27.7521 180.69 27.8737L180.685 27.8786Z" fill="white"/>
<path d="M207.645 38.965C207.645 42.2048 206.511 44.963 204.244 47.2348C201.977 49.5066 199.219 50.6449 195.96 50.6449C192.701 50.6449 190.001 49.5114 187.758 47.2445C185.516 44.9776 184.392 42.2194 184.392 38.9601C184.392 35.7008 185.501 32.9767 187.724 30.7681C189.947 28.5645 192.691 27.4602 195.96 27.4602C199.229 27.4602 202.031 28.5645 204.278 30.7779C206.521 32.9913 207.645 35.7154 207.645 38.9553V38.965ZM203.928 38.965C203.928 36.6689 203.169 34.7717 201.647 33.2734C200.124 31.7751 198.246 31.026 196.013 31.026C193.781 31.026 191.883 31.7751 190.375 33.2734C188.867 34.7717 188.118 36.6689 188.118 38.965C188.118 41.2611 188.882 43.2069 190.409 44.7587C191.937 46.3105 193.805 47.084 196.013 47.084C198.222 47.084 200.148 46.3105 201.661 44.7587C203.174 43.2069 203.933 41.2757 203.933 38.965H203.928Z" fill="white"/>
<path d="M232.761 28.127L222.331 50.9225L211.857 28.127H216.124L222.331 42.8424L228.446 28.127H232.761Z" fill="white"/>
<path d="M258.348 39.6071H240.826C240.962 41.9665 241.658 43.7955 242.913 45.0944C244.168 46.3932 245.846 47.0451 247.943 47.0451C249.539 47.0451 250.896 46.7289 252.015 46.0965C253.134 45.4641 254.019 44.5204 254.671 43.2556L257.799 44.8998C256.797 46.8019 255.459 48.2369 253.795 49.2001C252.131 50.1633 250.166 50.6498 247.899 50.6498C244.616 50.6498 241.994 49.5796 240.038 47.4343C238.083 45.289 237.105 42.4529 237.105 38.9212C237.105 35.6376 238.141 32.9037 240.208 30.7292C242.276 28.5548 244.825 27.4651 247.851 27.4651C250.876 27.4651 253.479 28.4623 255.425 30.452C257.371 32.4464 258.344 35.0587 258.344 38.3034V39.6023L258.348 39.6071ZM254.632 36.9608C254.432 35.0879 253.732 33.6334 252.53 32.5924C251.329 31.5514 249.767 31.0308 247.851 31.0308C245.934 31.0308 244.45 31.5659 243.171 32.641C241.892 33.7161 241.142 35.156 240.914 36.9657H254.627L254.632 36.9608Z" fill="white"/>
<path d="M278.741 27.8786L277.851 31.5757C277.578 31.4103 277.281 31.2838 276.96 31.2011C276.639 31.1184 276.299 31.0746 275.934 31.0746C274.095 31.0746 272.704 31.8627 271.77 33.434C270.836 35.0101 270.369 37.3645 270.369 40.4973V49.9444H266.652V28.1267H270.369V31.96C270.904 30.3936 271.668 29.2504 272.675 28.5353C273.677 27.8202 275.015 27.4651 276.693 27.4651C277.087 27.4651 277.471 27.504 277.846 27.577C278.22 27.6548 278.517 27.7521 278.746 27.8737L278.741 27.8786Z" fill="white"/>
<path d="M299.289 49.9396H285.984V14.7102H289.91V46.335H299.289V49.9396Z" fill="white"/>
<path d="M326.18 49.9395H322.439V46.3349C321.695 47.7359 320.649 48.8012 319.302 49.5406C317.954 50.2801 316.368 50.6449 314.544 50.6449C311.504 50.6449 308.998 49.5406 307.038 47.337C305.078 45.1333 304.095 42.3118 304.095 38.8726C304.095 35.4333 305.082 32.7675 307.048 30.6465C309.018 28.5256 311.548 27.4651 314.637 27.4651C316.388 27.4651 317.93 27.8056 319.268 28.4915C320.605 29.1774 321.666 30.1552 322.439 31.4346V28.1267H326.18V49.9395ZM322.439 38.785C322.439 36.3965 321.783 34.509 320.464 33.1129C319.146 31.7216 317.395 31.026 315.206 31.026C313.017 31.026 311.261 31.7508 309.903 33.1956C308.541 34.6404 307.86 36.5522 307.86 38.9212C307.86 41.2903 308.531 43.2799 309.869 44.7831C311.207 46.2862 312.929 47.0402 315.026 47.0402C317.122 47.0402 318.922 46.2668 320.333 44.7247C321.739 43.1826 322.444 41.1979 322.444 38.7801L322.439 38.785Z" fill="white"/>
<path d="M366.97 28.1268L356.545 50.9223L349.905 35.4042L343.313 50.9223L332.864 28.1268H337.106L343.265 42.7984L349.856 27.1003L356.54 42.7984L362.655 28.1268H366.965H366.97Z" fill="white"/>
<path d="M399.154 49.9396H394.158L378.733 31.7071V49.9396H374.807V14.7102H378.733V31.2061L393.769 14.7102H398.493L383.023 31.2985L399.154 49.9396Z" fill="#C99700"/>
<path d="M432 47.6582C430.706 48.4949 428.964 49.2002 426.775 49.7791C424.586 50.358 422.592 50.645 420.797 50.645C415.397 50.645 410.927 48.9132 407.38 45.4545C403.834 41.9958 402.063 37.603 402.063 32.2763C402.063 26.9496 403.868 22.766 407.473 19.2586C411.077 15.7513 415.533 14 420.845 14C423.049 14 425.126 14.2724 427.072 14.8124C429.018 15.3524 430.662 16.1112 432 17.0842V21.4866C430.555 20.3142 428.877 19.39 426.97 18.7138C425.063 18.0376 423.18 17.6971 421.322 17.6971C416.973 17.6971 413.33 19.0835 410.391 21.8612C407.453 24.6389 405.989 28.1073 405.989 32.2763C405.989 36.4453 407.4 39.9672 410.221 42.7595C413.043 45.5518 416.535 46.9479 420.704 46.9479C422.757 46.9479 424.8 46.6074 426.829 45.9312C428.857 45.2551 430.58 44.3308 431.995 43.1584V47.6533L432 47.6582Z" fill="#C99700"/>
<path d="M127.006 71V58.68H128.309V71H127.006ZM140.114 61.672C140.865 61.672 141.522 61.8187 142.085 62.112C142.66 62.3936 143.106 62.8277 143.423 63.4144C143.751 64.0011 143.916 64.7403 143.916 65.632V71H142.666V65.7552C142.666 64.7813 142.42 64.048 141.927 63.5552C141.446 63.0507 140.765 62.7984 139.885 62.7984C139.228 62.7984 138.653 62.9333 138.161 63.2032C137.679 63.4613 137.304 63.8427 137.034 64.3472C136.776 64.84 136.647 65.4384 136.647 66.1424V71H135.397V61.76H136.594V64.2944L136.401 63.8192C136.694 63.1504 137.163 62.6283 137.809 62.2528C138.454 61.8656 139.222 61.672 140.114 61.672ZM149.262 74.5024C148.887 74.5024 148.529 74.4496 148.189 74.344C147.837 74.2501 147.543 74.1035 147.309 73.904L147.749 72.9536C148.124 73.2704 148.605 73.4288 149.192 73.4288C149.685 73.4288 150.06 73.2821 150.318 72.9888C150.588 72.6955 150.723 72.2613 150.723 71.6864V61.76H151.973V71.6864C151.973 72.5429 151.738 73.2235 151.269 73.728C150.811 74.2443 150.142 74.5024 149.262 74.5024ZM151.357 59.7184C151.099 59.7184 150.881 59.6304 150.705 59.4544C150.529 59.2784 150.441 59.0672 150.441 58.8208C150.441 58.5744 150.529 58.3691 150.705 58.2048C150.881 58.0288 151.099 57.9408 151.357 57.9408C151.615 57.9408 151.832 58.0229 152.008 58.1872C152.184 58.3515 152.272 58.5568 152.272 58.8032C152.272 59.0613 152.184 59.2784 152.008 59.4544C151.844 59.6304 151.627 59.7184 151.357 59.7184ZM162.628 71.088C161.842 71.088 161.155 70.9413 160.569 70.648C159.982 70.3547 159.525 69.9147 159.196 69.328C158.879 68.7413 158.721 68.008 158.721 67.128V61.76H159.97V66.9872C159.97 67.9728 160.211 68.7179 160.692 69.2224C161.185 69.7152 161.871 69.9616 162.751 69.9616C163.397 69.9616 163.954 69.8325 164.423 69.5744C164.904 69.3045 165.268 68.9173 165.514 68.4128C165.773 67.9083 165.902 67.304 165.902 66.6V61.76H167.151V71H165.954V68.4656L166.148 68.9232C165.855 69.6037 165.397 70.1376 164.775 70.5248C164.165 70.9003 163.449 71.088 162.628 71.088ZM173.978 71V61.76H175.175V64.2768L175.051 63.8368C175.31 63.1328 175.744 62.5989 176.354 62.2352C176.964 61.8597 177.721 61.672 178.624 61.672V62.8864C178.577 62.8864 178.53 62.8864 178.483 62.8864C178.436 62.8747 178.39 62.8688 178.343 62.8688C177.369 62.8688 176.606 63.168 176.055 63.7664C175.503 64.3531 175.227 65.192 175.227 66.2832V71H173.978ZM184.714 74.5024C184.28 74.5024 183.863 74.432 183.464 74.2912C183.077 74.1504 182.743 73.9392 182.461 73.6576L183.042 72.7248C183.277 72.9477 183.529 73.1179 183.799 73.2352C184.08 73.3643 184.391 73.4288 184.732 73.4288C185.142 73.4288 185.494 73.3115 185.788 73.0768C186.093 72.8539 186.38 72.4549 186.65 71.88L187.248 70.5248L187.389 70.3312L191.191 61.76H192.423L187.794 72.1088C187.536 72.7072 187.248 73.1824 186.932 73.5344C186.627 73.8864 186.292 74.1328 185.928 74.2736C185.565 74.4261 185.16 74.5024 184.714 74.5024ZM187.178 71.264L182.919 61.76H184.221L187.988 70.2432L187.178 71.264ZM208.733 71.1056C207.935 71.1056 207.225 70.9765 206.603 70.7184C205.981 70.4485 205.489 70.0789 205.125 69.6096C204.773 69.1403 204.597 68.5947 204.597 67.9728C204.597 67.4448 204.714 66.9637 204.949 66.5296C205.184 66.0837 205.559 65.6496 206.075 65.2272C206.603 64.7931 207.301 64.3413 208.17 63.872C208.909 63.4613 209.484 63.1093 209.895 62.816C210.317 62.5109 210.616 62.2235 210.792 61.9536C210.968 61.672 211.056 61.3728 211.056 61.056C211.056 60.5984 210.898 60.2288 210.581 59.9472C210.276 59.6656 209.836 59.5248 209.261 59.5248C208.639 59.5248 208.158 59.6832 207.818 60C207.477 60.3051 207.307 60.704 207.307 61.1968C207.307 61.4432 207.343 61.6779 207.413 61.9008C207.495 62.1237 207.642 62.3701 207.853 62.64C208.076 62.9099 208.381 63.2501 208.768 63.6608L215.28 70.3664L214.559 71.1936L207.765 64.2064C207.354 63.7723 207.026 63.3968 206.779 63.08C206.545 62.7515 206.38 62.4405 206.287 62.1472C206.193 61.8539 206.146 61.5429 206.146 61.2144C206.146 60.6864 206.269 60.2288 206.515 59.8416C206.773 59.4427 207.137 59.1376 207.607 58.9264C208.076 58.7035 208.627 58.592 209.261 58.592C209.836 58.592 210.335 58.6917 210.757 58.8912C211.191 59.0789 211.525 59.3547 211.76 59.7184C212.007 60.0821 212.13 60.5221 212.13 61.0384C212.13 61.4843 212.018 61.9008 211.795 62.288C211.584 62.6752 211.232 63.0565 210.739 63.432C210.247 63.7957 209.578 64.2064 208.733 64.664C207.994 65.0747 207.407 65.4501 206.973 65.7904C206.551 66.1307 206.251 66.4651 206.075 66.7936C205.899 67.1104 205.811 67.4624 205.811 67.8496C205.811 68.2955 205.935 68.6885 206.181 69.0288C206.439 69.3573 206.791 69.6155 207.237 69.8032C207.695 69.9792 208.217 70.0672 208.803 70.0672C209.625 70.0672 210.358 69.8971 211.003 69.5568C211.649 69.2165 212.188 68.7003 212.623 68.008C213.068 67.3157 213.391 66.4475 213.591 65.4032L214.594 65.72C214.371 66.8933 213.99 67.8789 213.45 68.6768C212.91 69.4747 212.241 70.0789 211.443 70.4896C210.645 70.9003 209.742 71.1056 208.733 71.1056ZM226.837 71L232.469 58.68H233.754L239.386 71H238.013L232.839 59.4368H233.367L228.193 71H226.837ZM229.055 67.7088L229.442 66.6528H236.605L236.993 67.7088H229.055ZM248.255 71.088C247.34 71.088 246.519 70.8885 245.791 70.4896C245.075 70.0789 244.512 69.5216 244.102 68.8176C243.691 68.1019 243.486 67.2864 243.486 66.3712C243.486 65.4443 243.691 64.6288 244.102 63.9248C244.512 63.2208 245.075 62.6693 245.791 62.2704C246.519 61.8715 247.34 61.672 248.255 61.672C249.041 61.672 249.751 61.8245 250.385 62.1296C251.018 62.4347 251.517 62.8923 251.881 63.5024L250.948 64.136C250.631 63.6667 250.238 63.3205 249.769 63.0976C249.299 62.8747 248.789 62.7632 248.238 62.7632C247.58 62.7632 246.988 62.9157 246.46 63.2208C245.932 63.5141 245.515 63.9307 245.21 64.4704C244.905 65.0101 244.753 65.6437 244.753 66.3712C244.753 67.0987 244.905 67.7323 245.21 68.272C245.515 68.8117 245.932 69.2341 246.46 69.5392C246.988 69.8325 247.58 69.9792 248.238 69.9792C248.789 69.9792 249.299 69.8677 249.769 69.6448C250.238 69.4219 250.631 69.0816 250.948 68.624L251.881 69.2576C251.517 69.856 251.018 70.3136 250.385 70.6304C249.751 70.9355 249.041 71.088 248.255 71.088ZM261.362 71.088C260.446 71.088 259.625 70.8885 258.898 70.4896C258.182 70.0789 257.619 69.5216 257.208 68.8176C256.797 68.1019 256.592 67.2864 256.592 66.3712C256.592 65.4443 256.797 64.6288 257.208 63.9248C257.619 63.2208 258.182 62.6693 258.898 62.2704C259.625 61.8715 260.446 61.672 261.362 61.672C262.148 61.672 262.858 61.8245 263.491 62.1296C264.125 62.4347 264.624 62.8923 264.987 63.5024L264.054 64.136C263.738 63.6667 263.345 63.3205 262.875 63.0976C262.406 62.8747 261.896 62.7632 261.344 62.7632C260.687 62.7632 260.094 62.9157 259.566 63.2208C259.038 63.5141 258.622 63.9307 258.317 64.4704C258.012 65.0101 257.859 65.6437 257.859 66.3712C257.859 67.0987 258.012 67.7323 258.317 68.272C258.622 68.8117 259.038 69.2341 259.566 69.5392C260.094 69.8325 260.687 69.9792 261.344 69.9792C261.896 69.9792 262.406 69.8677 262.875 69.6448C263.345 69.4219 263.738 69.0816 264.054 68.624L264.987 69.2576C264.624 69.856 264.125 70.3136 263.491 70.6304C262.858 70.9355 262.148 71.088 261.362 71.088ZM270.649 71V61.76H271.898V71H270.649ZM271.282 59.7184C271.024 59.7184 270.807 59.6304 270.631 59.4544C270.455 59.2784 270.367 59.0672 270.367 58.8208C270.367 58.5744 270.455 58.3691 270.631 58.2048C270.807 58.0288 271.024 57.9408 271.282 57.9408C271.54 57.9408 271.757 58.0229 271.933 58.1872C272.109 58.3515 272.197 58.5568 272.197 58.8032C272.197 59.0613 272.109 59.2784 271.933 59.4544C271.769 59.6304 271.552 59.7184 271.282 59.7184ZM282.397 71.088C281.517 71.088 280.725 70.8885 280.021 70.4896C279.329 70.0907 278.784 69.5392 278.385 68.8352C277.986 68.1195 277.786 67.2981 277.786 66.3712C277.786 65.4325 277.986 64.6112 278.385 63.9072C278.784 63.2032 279.329 62.6576 280.021 62.2704C280.725 61.8715 281.517 61.672 282.397 61.672C283.207 61.672 283.929 61.8539 284.562 62.2176C285.208 62.5813 285.718 63.1152 286.093 63.8192C286.481 64.5115 286.674 65.3621 286.674 66.3712C286.674 67.3685 286.487 68.2192 286.111 68.9232C285.736 69.6272 285.225 70.1669 284.58 70.5424C283.946 70.9061 283.219 71.088 282.397 71.088ZM282.485 69.9792C283.143 69.9792 283.729 69.8325 284.245 69.5392C284.773 69.2341 285.184 68.8117 285.477 68.272C285.783 67.7205 285.935 67.0869 285.935 66.3712C285.935 65.6437 285.783 65.0101 285.477 64.4704C285.184 63.9307 284.773 63.5141 284.245 63.2208C283.729 62.9157 283.143 62.7632 282.485 62.7632C281.84 62.7632 281.259 62.9157 280.743 63.2208C280.227 63.5141 279.816 63.9307 279.511 64.4704C279.206 65.0101 279.053 65.6437 279.053 66.3712C279.053 67.0869 279.206 67.7205 279.511 68.272C279.816 68.8117 280.227 69.2341 280.743 69.5392C281.259 69.8325 281.84 69.9792 282.485 69.9792ZM285.97 71V68.2192L286.093 66.3536L285.917 64.488V57.9408H287.167V71H285.97ZM297.916 71.088C296.954 71.088 296.109 70.8885 295.382 70.4896C294.654 70.0789 294.085 69.5216 293.674 68.8176C293.264 68.1019 293.058 67.2864 293.058 66.3712C293.058 65.456 293.252 64.6464 293.639 63.9424C294.038 63.2384 294.578 62.6869 295.258 62.288C295.951 61.8773 296.725 61.672 297.582 61.672C298.45 61.672 299.218 61.8715 299.887 62.2704C300.568 62.6576 301.102 63.2091 301.489 63.9248C301.876 64.6288 302.07 65.4443 302.07 66.3712C302.07 66.4299 302.064 66.4944 302.052 66.5648C302.052 66.6235 302.052 66.688 302.052 66.7584H294.009V65.8256H301.383L300.89 66.1952C300.89 65.5264 300.744 64.9339 300.45 64.4176C300.169 63.8896 299.782 63.4789 299.289 63.1856C298.796 62.8923 298.227 62.7456 297.582 62.7456C296.948 62.7456 296.379 62.8923 295.874 63.1856C295.37 63.4789 294.977 63.8896 294.695 64.4176C294.414 64.9456 294.273 65.5499 294.273 66.2304V66.424C294.273 67.128 294.425 67.7499 294.73 68.2896C295.047 68.8176 295.481 69.2341 296.033 69.5392C296.596 69.8325 297.235 69.9792 297.951 69.9792C298.514 69.9792 299.037 69.8795 299.518 69.68C300.01 69.4805 300.433 69.1755 300.785 68.7648L301.489 69.5744C301.078 70.0672 300.562 70.4427 299.94 70.7008C299.33 70.9589 298.655 71.088 297.916 71.088ZM312.674 61.672C313.425 61.672 314.082 61.8187 314.645 62.112C315.22 62.3936 315.666 62.8277 315.983 63.4144C316.311 64.0011 316.475 64.7403 316.475 65.632V71H315.226V65.7552C315.226 64.7813 314.979 64.048 314.487 63.5552C314.006 63.0507 313.325 62.7984 312.445 62.7984C311.788 62.7984 311.213 62.9333 310.72 63.2032C310.239 63.4613 309.864 63.8427 309.594 64.3472C309.336 64.84 309.207 65.4384 309.207 66.1424V71H307.957V61.76H309.154V64.2944L308.96 63.8192C309.254 63.1504 309.723 62.6283 310.368 62.2528C311.014 61.8656 311.782 61.672 312.674 61.672ZM326.116 71.088C325.248 71.088 324.579 70.8533 324.11 70.384C323.641 69.9147 323.406 69.2517 323.406 68.3952V59.7184H324.656V68.3248C324.656 68.8645 324.791 69.2811 325.06 69.5744C325.342 69.8677 325.741 70.0144 326.257 70.0144C326.809 70.0144 327.266 69.856 327.63 69.5392L328.07 70.4368C327.824 70.6597 327.524 70.824 327.172 70.9296C326.832 71.0352 326.48 71.088 326.116 71.088ZM321.752 62.7984V61.76H327.472V62.7984H321.752ZM341.903 71V58.68H343.205V69.8736H350.105V71H341.903ZM361.138 71V68.9584L361.085 68.624V65.2096C361.085 64.4235 360.862 63.8192 360.416 63.3968C359.982 62.9744 359.331 62.7632 358.462 62.7632C357.864 62.7632 357.295 62.8629 356.755 63.0624C356.215 63.2619 355.758 63.5259 355.382 63.8544L354.819 62.9216C355.288 62.5227 355.852 62.2176 356.509 62.0064C357.166 61.7835 357.858 61.672 358.586 61.672C359.782 61.672 360.703 61.9712 361.349 62.5696C362.006 63.1563 362.334 64.0539 362.334 65.2624V71H361.138ZM357.952 71.088C357.26 71.088 356.655 70.9765 356.139 70.7536C355.635 70.5189 355.247 70.2021 354.978 69.8032C354.708 69.3925 354.573 68.9232 354.573 68.3952C354.573 67.9141 354.684 67.48 354.907 67.0928C355.142 66.6939 355.517 66.3771 356.034 66.1424C356.562 65.896 357.266 65.7728 358.146 65.7728H361.331V66.7056H358.181C357.289 66.7056 356.667 66.864 356.315 67.1808C355.975 67.4976 355.805 67.8907 355.805 68.36C355.805 68.888 356.01 69.3104 356.421 69.6272C356.831 69.944 357.406 70.1024 358.146 70.1024C358.85 70.1024 359.454 69.944 359.958 69.6272C360.475 69.2987 360.85 68.8293 361.085 68.2192L361.366 69.0816C361.132 69.6917 360.721 70.1787 360.134 70.5424C359.559 70.9061 358.832 71.088 357.952 71.088ZM370.784 71L367.299 61.76H368.496L371.664 70.3312H371.118L374.374 61.76H375.448L378.669 70.3312H378.123L381.344 61.76H382.488L378.985 71H377.806L374.709 62.9392H375.078L371.963 71H370.784ZM387.698 74.5024C387.264 74.5024 386.847 74.432 386.448 74.2912C386.061 74.1504 385.727 73.9392 385.445 73.6576L386.026 72.7248C386.26 72.9477 386.513 73.1179 386.783 73.2352C387.064 73.3643 387.375 73.4288 387.715 73.4288C388.126 73.4288 388.478 73.3115 388.771 73.0768C389.076 72.8539 389.364 72.4549 389.634 71.88L390.232 70.5248L390.373 70.3312L394.175 61.76H395.407L390.778 72.1088C390.52 72.7072 390.232 73.1824 389.915 73.5344C389.61 73.8864 389.276 74.1328 388.912 74.2736C388.548 74.4261 388.144 74.5024 387.698 74.5024ZM390.162 71.264L385.903 61.76H387.205L390.971 70.2432L390.162 71.264ZM404.177 71.088C403.215 71.088 402.37 70.8885 401.643 70.4896C400.916 70.0789 400.346 69.5216 399.936 68.8176C399.525 68.1019 399.32 67.2864 399.32 66.3712C399.32 65.456 399.513 64.6464 399.901 63.9424C400.3 63.2384 400.839 62.6869 401.52 62.288C402.212 61.8773 402.986 61.672 403.843 61.672C404.711 61.672 405.48 61.8715 406.149 62.2704C406.829 62.6576 407.363 63.2091 407.75 63.9248C408.137 64.6288 408.331 65.4443 408.331 66.3712C408.331 66.4299 408.325 66.4944 408.313 66.5648C408.313 66.6235 408.313 66.688 408.313 66.7584H400.27V65.8256H407.645L407.152 66.1952C407.152 65.5264 407.005 64.9339 406.712 64.4176C406.43 63.8896 406.043 63.4789 405.55 63.1856C405.057 62.8923 404.488 62.7456 403.843 62.7456C403.209 62.7456 402.64 62.8923 402.136 63.1856C401.631 63.4789 401.238 63.8896 400.957 64.4176C400.675 64.9456 400.534 65.5499 400.534 66.2304V66.424C400.534 67.128 400.687 67.7499 400.992 68.2896C401.309 68.8176 401.743 69.2341 402.294 69.5392C402.857 69.8325 403.497 69.9792 404.213 69.9792C404.776 69.9792 405.298 69.8795 405.779 69.68C406.272 69.4805 406.694 69.1755 407.046 68.7648L407.75 69.5744C407.34 70.0672 406.823 70.4427 406.201 70.7008C405.591 70.9589 404.917 71.088 404.177 71.088ZM414.218 71V61.76H415.415V64.2768L415.292 63.8368C415.55 63.1328 415.984 62.5989 416.594 62.2352C417.205 61.8597 417.961 61.672 418.865 61.672V62.8864C418.818 62.8864 418.771 62.8864 418.724 62.8864C418.677 62.8747 418.63 62.8688 418.583 62.8688C417.609 62.8688 416.847 63.168 416.295 63.7664C415.744 64.3531 415.468 65.192 415.468 66.2832V71H414.218ZM427.074 71.088C426.311 71.088 425.589 70.9824 424.909 70.7712C424.228 70.5483 423.695 70.2725 423.307 69.944L423.871 68.9584C424.246 69.24 424.727 69.4864 425.314 69.6976C425.9 69.8971 426.516 69.9968 427.162 69.9968C428.042 69.9968 428.675 69.8619 429.063 69.592C429.45 69.3104 429.643 68.9408 429.643 68.4832C429.643 68.1429 429.532 67.8789 429.309 67.6912C429.098 67.4917 428.816 67.3451 428.464 67.2512C428.112 67.1456 427.719 67.0576 427.285 66.9872C426.851 66.9168 426.417 66.8347 425.983 66.7408C425.56 66.6469 425.173 66.512 424.821 66.336C424.469 66.1483 424.181 65.896 423.959 65.5792C423.747 65.2624 423.642 64.84 423.642 64.312C423.642 63.8075 423.783 63.3557 424.064 62.9568C424.346 62.5579 424.756 62.2469 425.296 62.024C425.848 61.7893 426.516 61.672 427.303 61.672C427.901 61.672 428.499 61.7541 429.098 61.9184C429.696 62.0709 430.189 62.2763 430.576 62.5344L430.031 63.5376C429.62 63.256 429.18 63.0565 428.711 62.9392C428.241 62.8101 427.772 62.7456 427.303 62.7456C426.469 62.7456 425.853 62.8923 425.455 63.1856C425.067 63.4672 424.874 63.8309 424.874 64.2768C424.874 64.6288 424.979 64.9045 425.191 65.104C425.413 65.3035 425.701 65.4619 426.053 65.5792C426.417 65.6848 426.81 65.7728 427.232 65.8432C427.666 65.9136 428.095 66.0016 428.517 66.1072C428.951 66.2011 429.344 66.336 429.696 66.512C430.06 66.6763 430.347 66.9168 430.559 67.2336C430.781 67.5387 430.893 67.9435 430.893 68.448C430.893 68.9877 430.74 69.4571 430.435 69.856C430.142 70.2432 429.708 70.5483 429.133 70.7712C428.57 70.9824 427.883 71.088 427.074 71.088Z" fill="white"/>
</g>
<defs>
<linearGradient id="paint0_linear_270_737" x1="43.5" y1="0" x2="43.5" y2="87" gradientUnits="userSpaceOnUse">
<stop stop-color="#9C7304"/>
<stop offset="1" stop-color="#FBC40A"/>
</linearGradient>
<linearGradient id="paint1_linear_270_737" x1="73" y1="80" x2="1.5" y2="35" gradientUnits="userSpaceOnUse">
<stop stop-color="#9C7304"/>
<stop offset="1" stop-color="#FBC40A"/>
</linearGradient>
<linearGradient id="paint2_linear_270_737" x1="43.5058" y1="14.291" x2="43.5058" y2="72.7011" gradientUnits="userSpaceOnUse">
<stop stop-color="#0B1A32"/>
<stop offset="1" stop-color="#022073"/>
</linearGradient>
<clipPath id="clip0_270_737">
<rect width="431.528" height="87" fill="white"/>
</clipPath>
</defs>
</svg>
